# xmcd
#
# Track frame offsets: 
#        150
#        18234
#        24249
#        54681
#        76497
#        101289
#        122791
#        132345
#        146292
#        164934
#        184978
#        194806
#        199263
#        224314
#
# Disc length: 3378 seconds
#
# Revision: 0
# Processed by: cddbd v1.5.2PL0 Copyright (c) Steve Scherf et al.
# Submitted via: ExactAudioCopy v0.95b4
#
DISCID=d00d300e
DTITLE=Don Haupt - Steady Rollin' Man
DYEAR=2003
DGENRE=Blues
TTITLE0=Steady Rollin' Man
TTITLE1=Black Betty
TTITLE2=Come On In My Kitchen
TTITLE3=Katie Mae
TTITLE4=Dark Was The Night
TTITLE5=Death Don't Have No Mercy
TTITLE6=John The Revelator
TTITLE7=Travelin' Riverside Blues
TTITLE8=Empire State Express
TTITLE9=Phonograph Blues
TTITLE10=Red Cross Store
TTITLE11=Intro
TTITLE12=Goodnight Irene
TTITLE13=One Kind Favor
EXTD=
EXTT0=
EXTT1=
EXTT2=
EXTT3=
EXTT4=
EXTT5=
EXTT6=
EXTT7=
EXTT8=
EXTT9=
EXTT10=
EXTT11=
EXTT12=
EXTT13=
PLAYORDER=
